<svg width="360" height="542" viewBox="0 0 360 542" fill="none" xmlns="http://www.w3.org/2000/svg">
<g opacity="0.3">
<path fill-rule="evenodd" clip-rule="evenodd" d="M174.682 198.057C171.443 196.871 169.121 193.998 168.643 190.582L156.341 102.728C155.625 97.6203 159.186 92.9001 164.293 92.1849C169.401 91.4696 174.121 95.0303 174.836 100.138L186.362 182.444L250.706 205.991L299.687 166.859L288.122 84.2739C287.407 79.1665 290.968 74.4463 296.075 73.7311C301.183 73.0159 305.903 76.5765 306.618 81.6839L318.921 169.538C319.378 172.805 318.078 176.07 315.501 178.129L258.259 223.862C255.71 225.898 252.284 226.456 249.221 225.335L174.682 198.057Z" fill="url(#paint0_linear)"/>
<path fill-rule="evenodd" clip-rule="evenodd" d="M352.992 461.242C349.654 460.374 347.067 457.737 346.262 454.383L325.557 368.122C324.353 363.107 327.443 358.066 332.458 356.862C337.472 355.658 342.514 358.748 343.717 363.763L363.115 444.576L429.427 461.819L474.413 418.152L454.949 337.064C453.746 332.049 456.835 327.008 461.85 325.805C466.865 324.601 471.906 327.691 473.11 332.705L493.815 418.967C494.585 422.174 493.605 425.55 491.239 427.847L438.665 478.879C436.325 481.151 432.968 482.037 429.811 481.216L352.992 461.242Z" fill="url(#paint1_linear)"/>
<path fill-rule="evenodd" clip-rule="evenodd" d="M360.076 -18.1389C362.898 -16.1558 364.397 -12.7791 363.975 -9.3564L353.12 78.6887C352.488 83.8072 347.828 87.445 342.709 86.814C337.59 86.1829 333.953 81.5219 334.584 76.4034L344.753 -6.08094L288.697 -45.4798L231.256 -20.3582L221.052 62.406C220.421 67.5246 215.76 71.1624 210.641 70.5313C205.523 69.9002 201.885 65.2393 202.516 60.1207L213.371 -27.9243C213.775 -31.1979 215.875 -34.0157 218.897 -35.3373L286.026 -64.6961C289.015 -66.0032 292.469 -65.656 295.138 -63.7803L360.076 -18.1389Z" fill="url(#paint2_linear)"/>
<path fill-rule="evenodd" clip-rule="evenodd" d="M360.076 -18.1389C362.898 -16.1558 364.397 -12.7791 363.975 -9.3564L353.12 78.6887C352.488 83.8072 347.828 87.445 342.709 86.814C337.59 86.1829 333.953 81.5219 334.584 76.4034L344.753 -6.08094L288.697 -45.4798L231.256 -20.3582L221.052 62.406C220.421 67.5246 215.76 71.1624 210.641 70.5313C205.523 69.9002 201.885 65.2393 202.516 60.1207L213.371 -27.9243C213.775 -31.1979 215.875 -34.0157 218.897 -35.3373L286.026 -64.6961C289.015 -66.0032 292.469 -65.656 295.138 -63.7803L360.076 -18.1389Z" fill="url(#paint3_linear)"/>
<path fill-rule="evenodd" clip-rule="evenodd" d="M405.622 283.265C402.977 285.477 399.327 286.051 396.13 284.757L313.895 251.484C309.114 249.55 306.806 244.106 308.741 239.326C310.675 234.545 316.119 232.237 320.899 234.172L397.941 265.343L450.506 221.394L441.107 159.408L363.804 128.131C359.023 126.197 356.716 120.753 358.65 115.972C360.584 111.192 366.028 108.884 370.809 110.818L453.044 144.091C456.102 145.328 458.28 148.087 458.775 151.348L469.759 223.788C470.248 227.013 469.018 230.259 466.516 232.352L405.622 283.265Z" fill="url(#paint4_linear)"/>
<path fill-rule="evenodd" clip-rule="evenodd" d="M91.0184 -12.0635C93.6642 -14.2756 97.3137 -14.8494 100.511 -13.5559L182.746 19.7171C187.527 21.6514 189.834 27.0951 187.9 31.8759C185.966 36.6566 180.522 38.9642 175.741 37.0298L98.6996 5.8583L46.1347 49.8078L55.5336 111.793L132.837 143.07C137.617 145.005 139.925 150.448 137.991 155.229C136.056 160.01 130.613 162.317 125.832 160.383L43.5963 127.11C40.5388 125.873 38.3607 123.115 37.8662 119.854L26.882 47.4135C26.393 44.1884 27.6223 40.9419 30.1248 38.8496L91.0184 -12.0635Z" fill="url(#paint5_linear)"/>
<path fill-rule="evenodd" clip-rule="evenodd" d="M91.0184 -12.0635C93.6642 -14.2756 97.3137 -14.8494 100.511 -13.5559L182.746 19.7171C187.527 21.6514 189.834 27.0951 187.9 31.8759C185.966 36.6566 180.522 38.9642 175.741 37.0298L98.6996 5.8583L46.1347 49.8078L55.5336 111.793L132.837 143.07C137.617 145.005 139.925 150.448 137.991 155.229C136.056 160.01 130.613 162.317 125.832 160.383L43.5963 127.11C40.5388 125.873 38.3607 123.115 37.8662 119.854L26.882 47.4135C26.393 44.1884 27.6223 40.9419 30.1248 38.8496L91.0184 -12.0635Z" fill="url(#paint6_linear)"/>
<path fill-rule="evenodd" clip-rule="evenodd" d="M161.92 330.137C159.765 327.444 159.27 323.783 160.633 320.614L195.674 239.117C197.712 234.379 203.204 232.19 207.942 234.227C212.68 236.264 214.869 241.756 212.832 246.494L180.003 322.844L222.807 376.346L284.981 368.289L317.921 291.679C319.958 286.942 325.45 284.752 330.188 286.789C334.926 288.827 337.115 294.319 335.078 299.057L300.036 380.554C298.734 383.584 295.929 385.702 292.658 386.126L219.997 395.543C216.762 395.962 213.543 394.663 211.505 392.116L161.92 330.137Z" fill="url(#paint7_linear)"/>
<path fill-rule="evenodd" clip-rule="evenodd" d="M161.92 330.137C159.765 327.444 159.27 323.783 160.633 320.614L195.674 239.117C197.712 234.379 203.204 232.19 207.942 234.227C212.68 236.264 214.869 241.756 212.832 246.494L180.003 322.844L222.807 376.346L284.981 368.289L317.921 291.679C319.958 286.942 325.45 284.752 330.188 286.789C334.926 288.827 337.115 294.319 335.078 299.057L300.036 380.554C298.734 383.584 295.929 385.702 292.658 386.126L219.997 395.543C216.762 395.962 213.543 394.663 211.505 392.116L161.92 330.137Z" fill="url(#paint8_linear)"/>
</g>
<defs>
<linearGradient id="paint0_linear" x1="252.754" y1="218.878" x2="303.982" y2="79.6957" gradientUnits="userSpaceOnUse">
<stop stop-color="#38CCE9"/>
<stop offset="1" stop-color="#5E64ED"/>
</linearGradient>
<linearGradient id="paint1_linear" x1="432.706" y1="474.449" x2="470.295" y2="330.98" gradientUnits="userSpaceOnUse">
<stop stop-color="#38CCE9"/>
<stop offset="1" stop-color="#5E64ED"/>
</linearGradient>
<linearGradient id="paint2_linear" x1="290.054" y1="-58.4575" x2="204.548" y2="62.7234" gradientUnits="userSpaceOnUse">
<stop stop-color="#38CCE9"/>
<stop offset="1" stop-color="#5E64ED"/>
</linearGradient>
<linearGradient id="paint3_linear" x1="351.565" y1="14.9877" x2="219.497" y2="-1.29498" gradientUnits="userSpaceOnUse">
<stop stop-color="#55F7AA"/>
<stop offset="1" stop-color="#39DDD7"/>
</linearGradient>
<linearGradient id="paint4_linear" x1="462.69" y1="226.063" x2="367.769" y2="112.107" gradientUnits="userSpaceOnUse">
<stop stop-color="#38CCE9"/>
<stop offset="1" stop-color="#5E64ED"/>
</linearGradient>
<linearGradient id="paint5_linear" x1="33.9505" y1="45.138" x2="128.872" y2="159.095" gradientUnits="userSpaceOnUse">
<stop stop-color="#38CCE9"/>
<stop offset="1" stop-color="#5E64ED"/>
</linearGradient>
<linearGradient id="paint6_linear" x1="120.813" y1="4.73214" x2="70.9038" y2="128.085" gradientUnits="userSpaceOnUse">
<stop stop-color="#55F7AA"/>
<stop offset="1" stop-color="#39DDD7"/>
</linearGradient>
<linearGradient id="paint7_linear" x1="217.875" y1="388.427" x2="333.855" y2="295.99" gradientUnits="userSpaceOnUse">
<stop stop-color="#38CCE9"/>
<stop offset="1" stop-color="#5E64ED"/>
</linearGradient>
<linearGradient id="paint8_linear" x1="179.355" y1="300.712" x2="301.601" y2="353.274" gradientUnits="userSpaceOnUse">
<stop stop-color="#55F7AA"/>
<stop offset="1" stop-color="#39DDD7"/>
</linearGradient>
</defs>
</svg>
